<svg xmlns="http://www.w3.org/2000/svg" viewBox="0 0 372.08 545.39"><defs><style>.cls-1{fill:#62af24;}.cls-2{fill:#5da622;}.cls-3{fill:#f1f1f1;}</style></defs><g id="Layer_2" data-name="Layer 2"><g id="Capa_1" data-name="Capa 1"><rect class="cls-1" width="372.08" height="545.39"/><rect class="cls-2" x="23.29" y="30.83" width="323.7" height="485.54"/><rect class="cls-1" x="23.29" y="30.83" width="323.7" height="28.46"/><rect class="cls-1" x="23.29" y="85" width="323.7" height="28.46"/><rect class="cls-1" x="23.29" y="139.17" width="323.7" height="28.46"/><rect class="cls-1" x="23.29" y="193.34" width="323.7" height="28.46"/><rect class="cls-1" x="23.29" y="247.52" width="323.7" height="28.46"/><rect class="cls-1" x="23.29" y="301.69" width="323.7" height="28.46"/><rect class="cls-1" x="23.29" y="355.86" width="323.7" height="28.46"/><rect class="cls-1" x="23.29" y="410.03" width="323.7" height="28.46"/><rect class="cls-1" x="23.29" y="464.2" width="323.7" height="28.46"/><path class="cls-3" d="M348.12,29.7H22.17V517.5h326ZM337.56,515.25a8.7,8.7,0,0,1,8.31-9.15v9.15ZM188.21,272.48a3.25,3.25,0,0,0-6.13,0h-44a47.06,47.06,0,0,1,94.09,0Zm-6.13,2.25a3.26,3.26,0,0,0,6.13,0h44a47.06,47.06,0,0,1-94.09,0ZM345.87,41.1a9.56,9.56,0,0,1-6.36-3.18,9.7,9.7,0,0,1-1.95-6h8.31ZM235.56,32v30.4H134.73V32ZM132.48,64.6H237.81V32H287.1v82.13H83.19V32h49.29Zm90,51.73a47,47,0,0,1-74.64,0Zm-141.52,0H145a49.25,49.25,0,0,0,80.2,0h64.11V32h46a11.81,11.81,0,0,0,2.44,7.37,11.88,11.88,0,0,0,8.12,4V272.48H234.44a49.31,49.31,0,0,0-98.59,0H24.42V43.36a11.87,11.87,0,0,0,8.11-4A11.89,11.89,0,0,0,35,32h46ZM32.73,32a9.6,9.6,0,0,1-1.94,5.95,9.6,9.6,0,0,1-6.37,3.2V32ZM24.42,506.1a9.58,9.58,0,0,1,6.35,3.18,9.66,9.66,0,0,1,2,6H24.42Zm110.31,9.15v-30.4H235.56v30.4Zm103.08-32.64H132.48v32.64H83.19V433.13H287.1v82.12H237.81Zm-90-51.73a47,47,0,0,1,74.64,0Zm141.53,0H225.24a49.23,49.23,0,0,0-80.2,0H80.94v84.37H35a11.83,11.83,0,0,0-2.45-7.37,11.87,11.87,0,0,0-8.11-4V274.73H135.85a49.31,49.31,0,0,0,98.59,0H345.87V503.84a10.95,10.95,0,0,0-10.56,11.41h-46Z"/><path class="cls-3" d="M188.51,458.6a3.37,3.37,0,1,0-3.37,3.36A3.37,3.37,0,0,0,188.51,458.6Z"/><path class="cls-3" d="M181.78,88.61a3.37,3.37,0,1,0,3.36-3.37A3.37,3.37,0,0,0,181.78,88.61Z"/></g></g></svg>